<svg width="27" height="27" viewBox="0 0 27 27" fill="none" xmlns="http://www.w3.org/2000/svg">
<path d="M23.625 21.375V19.5233C23.625 18.6033 23.0649 17.7759 22.2106 17.4343L19.9222 16.5189C18.8357 16.0843 17.5975 16.5551 17.0741 17.6017L16.875 18C16.875 18 14.0625 17.4375 11.8125 15.1875C9.5625 12.9375 9 10.125 9 10.125L9.39827 9.92587C10.4449 9.40254 10.9157 8.16428 10.4811 7.07778L9.56575 4.78937C9.22406 3.93514 8.39671 3.375 7.47668 3.375H5.625C4.38236 3.375 3.375 4.38236 3.375 5.625C3.375 15.5661 11.4339 23.625 21.375 23.625C22.6176 23.625 23.625 22.6176 23.625 21.375Z" fill="#0F3780"/>
</svg>
