<svg width="26" height="26" viewBox="0 0 26 26" fill="none" xmlns="http://www.w3.org/2000/svg">
<path d="M13 1.625C10.6305 1.6278 8.35883 2.57032 6.68333 4.24582C5.00783 5.92132 4.0653 8.19299 4.06251 10.5625C4.06033 12.4988 4.69277 14.3824 5.86301 15.925C5.86301 15.925 6.10676 16.2459 6.14657 16.2922L13 24.375L19.8567 16.2882C19.8924 16.2451 20.137 15.925 20.137 15.925L20.1378 15.9226C21.3073 14.3805 21.9394 12.4978 21.9375 10.5625C21.9347 8.19299 20.9922 5.92132 19.3167 4.24582C17.6412 2.57032 15.3695 1.6278 13 1.625ZM13 13.8125C12.3572 13.8125 11.7289 13.6219 11.1944 13.2648C10.6599 12.9077 10.2434 12.4001 9.9974 11.8062C9.75141 11.2124 9.68705 10.5589 9.81245 9.92846C9.93785 9.29802 10.2474 8.71892 10.7019 8.2644C11.1564 7.80988 11.7355 7.50035 12.366 7.37495C12.9964 7.24955 13.6499 7.31391 14.2437 7.55989C14.8376 7.80588 15.3452 8.22244 15.7023 8.7569C16.0594 9.29136 16.25 9.91971 16.25 10.5625C16.2489 11.4241 15.9062 12.2501 15.2969 12.8594C14.6877 13.4687 13.8616 13.8114 13 13.8125Z" fill="#0A2657"/>
</svg>
