<svg width="22" height="22" viewBox="0 0 22 22" fill="none" xmlns="http://www.w3.org/2000/svg">
<path d="M20.7502 20.75L16.0453 16.0451M16.0453 16.0451C16.8501 15.2403 17.4885 14.2849 17.9241 13.2333C18.3596 12.1818 18.5838 11.0548 18.5838 9.91666C18.5838 8.77851 18.3596 7.6515 17.9241 6.59999C17.4885 5.54847 16.8501 4.59304 16.0453 3.78824C15.2405 2.98345 14.2851 2.34505 13.2336 1.9095C12.182 1.47395 11.055 1.24977 9.91689 1.24977C8.77874 1.24977 7.65173 1.47395 6.60021 1.9095C5.5487 2.34505 4.59327 2.98345 3.78847 3.78824C2.16312 5.4136 1.25 7.61806 1.25 9.91666C1.25 12.2153 2.16312 14.4197 3.78847 16.0451C5.41383 17.6704 7.61829 18.5836 9.91689 18.5836C12.2155 18.5836 14.4199 17.6704 16.0453 16.0451Z" stroke="#0F3780" stroke-width="2" stroke-linecap="round" stroke-linejoin="round"/>
</svg>
