<svg width="120" height="120" viewBox="0 0 120 120" fill="none" xmlns="http://www.w3.org/2000/svg">
<path d="M68.9998 100.648H41.6926C38.2606 100.648 35.4718 97.8544 35.4718 94.4272V42.6064C35.4718 39.1744 38.2654 36.3856 41.6926 36.3856H45.475V43.3696H43.6366C42.8398 43.3696 42.1966 44.0128 42.1966 44.8096C42.1966 45.6064 42.8398 46.2496 43.6366 46.2496H54.0574C54.8542 46.2496 55.4974 45.6064 55.4974 44.8096C55.4974 44.0128 54.8542 43.3696 54.0574 43.3696H48.355V22.5424C48.355 20.5264 49.9966 18.8848 52.0126 18.8848H57.3502C58.147 18.8848 58.7902 18.2416 58.7902 17.4448C58.7902 16.648 58.147 16.0048 57.3502 16.0048H52.0126C48.4078 16.0048 45.475 18.9376 45.475 22.5424V33.5056H41.6926C36.6718 33.5056 32.5918 37.5904 32.5918 42.6064V94.4272C32.5918 99.448 36.6766 103.528 41.6926 103.528H68.9998C69.7966 103.528 70.4398 102.885 70.4398 102.088C70.4398 101.291 69.7966 100.648 68.9998 100.648Z" fill="#0F3780"/>
<path d="M76.3629 88.1488H54.1485C53.3517 88.1488 52.7085 88.792 52.7085 89.5888C52.7085 90.3856 53.3517 91.0288 54.1485 91.0288H76.3629C77.1597 91.0288 77.8029 90.3856 77.8029 89.5888C77.8029 88.792 77.1597 88.1488 76.3629 88.1488Z" fill="#0F3780"/>
<path d="M42.1968 54.5776V71.8288C42.1968 72.6256 42.84 73.2688 43.6368 73.2688H68.256C69.0528 73.2688 69.696 72.6256 69.696 71.8288C69.696 71.032 69.0528 70.3888 68.256 70.3888H45.0768V56.0176H63.4512C64.248 56.0176 64.8912 55.3744 64.8912 54.5776C64.8912 53.7808 64.248 53.1376 63.4512 53.1376H43.6368C42.84 53.1376 42.1968 53.7808 42.1968 54.5776Z" fill="#0F3780"/>
<path d="M63.8926 81.1312C63.8926 81.928 64.5358 82.5712 65.3326 82.5712H76.363C77.1598 82.5712 77.803 81.928 77.803 81.1312C77.803 80.3344 77.1598 79.6912 76.363 79.6912H65.3326C64.5358 79.6912 63.8926 80.3344 63.8926 81.1312Z" fill="#0F3780"/>
<path d="M78.3069 33.5008H74.7405V28.3072H83.4957C84.2925 28.3072 84.9357 27.664 84.9357 26.8672V22.5376C84.9357 18.9328 82.0029 16 78.3981 16H56.1885C55.3917 16 54.7485 16.6432 54.7485 17.44C54.7485 18.2368 55.3917 18.88 56.1885 18.88H72.9837C72.2781 19.9264 71.8605 21.184 71.8605 22.5376V43.3648H61.6365C60.8397 43.3648 60.1965 44.008 60.1965 44.8048C60.1965 45.6016 60.8397 46.2448 61.6365 46.2448H76.3581C77.1549 46.2448 77.7981 45.6016 77.7981 44.8048C77.7981 44.008 77.1549 43.3648 76.3581 43.3648H74.7357V36.3808H78.3021C81.7341 36.3808 84.5229 39.1744 84.5229 42.6016V94.4224C84.5229 95.2192 85.1661 95.8624 85.9629 95.8624C86.7597 95.8624 87.4029 95.2192 87.4029 94.4224V42.6016C87.4029 37.5808 83.3181 33.5008 78.3021 33.5008H78.3069ZM82.0557 22.5376V25.4272H74.7405V22.5376C74.7405 20.5216 76.3821 18.88 78.3981 18.88C80.4141 18.88 82.0557 20.5216 82.0557 22.5376Z" fill="#0EB4DA"/>
<path d="M77.2365 53.1376H65.3277C64.5309 53.1376 63.8877 53.7808 63.8877 54.5776C63.8877 55.3744 64.5309 56.0176 65.3277 56.0176H75.7965V70.3888H71.9661C71.1693 70.3888 70.5261 71.032 70.5261 71.8288C70.5261 72.6256 71.1693 73.2688 71.9661 73.2688H77.2365C78.0333 73.2688 78.6765 72.6256 78.6765 71.8288V54.5776C78.6765 53.7808 78.0333 53.1376 77.2365 53.1376Z" fill="#0EB4DA"/>
<path d="M44.4863 92.3633C46.0186 92.3633 47.2607 91.1211 47.2607 89.5889C47.2607 88.0566 46.0186 86.8145 44.4863 86.8145C42.9541 86.8145 41.7119 88.0566 41.7119 89.5889C41.7119 91.1211 42.9541 92.3633 44.4863 92.3633Z" fill="#0EB4DA"/>
<path d="M85.9681 92.9872C85.1713 92.9872 84.5281 93.6304 84.5281 94.4272C84.5281 97.8592 81.7345 100.648 78.3073 100.648H69.0001C68.2033 100.648 67.5601 101.291 67.5601 102.088C67.5601 102.885 68.2033 103.528 69.0001 103.528H78.3073C83.3281 103.528 87.4081 99.4432 87.4081 94.4272C87.4081 93.6304 86.7649 92.9872 85.9681 92.9872Z" fill="#0A2555"/>
<path d="M65.2658 44.8047C65.2658 44.0079 64.6226 43.3647 63.8258 43.3647H54.0626C53.2658 43.3647 52.6226 44.0079 52.6226 44.8047C52.6226 45.6015 53.2658 46.2447 54.0626 46.2447H63.8258C64.6226 46.2447 65.2658 45.6015 65.2658 44.8047Z" fill="#0A2555"/>
<path d="M58.7904 17.44C58.7904 16.6432 58.1472 16 57.3504 16H52.0128C51.216 16 50.5728 16.6432 50.5728 17.44C50.5728 18.2368 51.216 18.88 52.0128 18.88H57.3504C58.1472 18.88 58.7904 18.2368 58.7904 17.44Z" fill="#0A2555"/>
<path d="M77.2367 73.2688C78.0335 73.2688 78.6767 72.6256 78.6767 71.8288V68.512C78.6767 67.7152 78.0335 67.072 77.2367 67.072C76.4399 67.072 75.7967 67.7152 75.7967 68.512V70.3888H68.2559C67.4591 70.3888 66.8159 71.032 66.8159 71.8288C66.8159 72.6256 67.4591 73.2688 68.2559 73.2688H77.2367Z" fill="#0A2555"/>
<path d="M74.5008 54.5776C74.5008 53.7808 73.8576 53.1376 73.0608 53.1376H63.4512C62.6544 53.1376 62.0112 53.7808 62.0112 54.5776C62.0112 55.3744 62.6544 56.0176 63.4512 56.0176H73.0608C73.8576 56.0176 74.5008 55.3744 74.5008 54.5776Z" fill="#0A2555"/>
</svg>
