<svg width="100" height="100" viewBox="0 0 100 100" fill="none" xmlns="http://www.w3.org/2000/svg">
<path d="M15.8449 85.8668C15.4183 85.8668 14.9972 85.7062 14.6704 85.3793C5.20776 75.9333 0 63.3682 0 49.9998C0 40.371 2.74238 31.0192 7.93352 22.9638C8.43213 22.1937 9.45706 21.9666 10.2327 22.4652C11.0028 22.9638 11.2244 23.9887 10.7313 24.7643C5.8892 32.2879 3.3241 41.0136 3.3241 49.9998C3.3241 62.4818 8.18836 74.2103 17.0194 83.0303C17.6676 83.6785 17.6676 84.7311 17.0194 85.3793C16.6925 85.7062 16.2715 85.8668 15.8449 85.8668Z" fill="#0F3780"/>
<path d="M49.9998 75.0804C36.1715 75.0804 24.9194 63.8284 24.9194 50.0001C24.9194 44.9752 26.3987 40.1275 29.202 35.978C29.7172 35.219 30.7477 35.0195 31.5122 35.5292C32.2712 36.0444 32.4707 37.0749 31.961 37.8394C29.5289 41.435 28.2491 45.64 28.2491 50.0001C28.2491 61.9946 38.0053 71.7564 50.0053 71.7564C54.3654 71.7564 58.5704 70.471 62.166 68.0444C62.925 67.5292 63.961 67.7286 64.4762 68.4932C64.9915 69.2522 64.792 70.2882 64.0275 70.8034C59.8779 73.6068 55.0302 75.086 50.0053 75.086L49.9998 75.0804Z" fill="#0F3780"/>
<path d="M42.4878 61.3074C41.7565 61.3074 41.0917 60.8198 40.8867 60.083C40.6429 59.1966 41.1637 58.2824 42.0501 58.0387L44.2717 57.4293C47.4407 56.5595 53.2025 56.432 58.0833 57.878C58.9642 58.1384 59.4684 59.0636 59.208 59.9445C58.9476 60.8254 58.0224 61.3295 57.1415 61.0692C52.3825 59.6619 47.2579 60.0608 45.1471 60.637L42.9255 61.2464C42.7759 61.2852 42.6318 61.3074 42.4822 61.3074H42.4878Z" fill="#0F3780"/>
<path d="M52.8036 52.5096H46.8701C45.9504 52.5096 45.208 51.7673 45.208 50.8476C45.208 49.9279 45.9504 49.1855 46.8701 49.1855H52.8036C53.7232 49.1855 54.4656 49.9279 54.4656 50.8476C54.4656 51.7673 53.7232 52.5096 52.8036 52.5096Z" fill="#0F3780"/>
<path d="M99.7398 54.9031C99.7398 54.8255 99.7287 54.7535 99.7176 54.6814C99.7121 54.6427 99.7065 54.6094 99.6954 54.5706C99.6788 54.5042 99.6567 54.4377 99.6345 54.3712C99.6179 54.3324 99.6068 54.2992 99.5902 54.2604C99.5625 54.1995 99.5292 54.1441 99.496 54.0886C99.4738 54.0554 99.4517 54.0166 99.424 53.9834C99.3852 53.9335 99.3464 53.8837 99.3021 53.8393C99.2744 53.8061 99.2412 53.7784 99.2079 53.7452C99.1636 53.7064 99.1137 53.6676 99.0694 53.6288C99.0306 53.6011 98.9919 53.5734 98.9531 53.5513C98.9032 53.5236 98.8533 53.4958 98.7979 53.4681C98.7536 53.446 98.7038 53.4238 98.6539 53.4072C98.604 53.3906 98.5542 53.374 98.4988 53.3573C98.4434 53.3407 98.388 53.3296 98.327 53.3241C98.2993 53.3241 98.2772 53.313 98.2495 53.3075C98.2218 53.3075 98.1941 53.3075 98.1664 53.3075C98.1387 53.3075 98.111 53.2964 98.0777 53.2964H74.8533C74.9974 52.2105 75.075 51.108 75.075 50C75.075 48.892 74.9919 47.7839 74.8533 46.7036L98.0833 46.7147C99.0029 46.7147 99.7453 45.9723 99.7453 45.0526C99.7453 45.0028 99.7342 44.9585 99.7287 44.9086C99.7287 44.8753 99.7287 44.8476 99.7287 44.8144V44.7424C98.6096 34.1219 94.2162 24.3213 87.014 16.3878C79.8561 8.5097 70.5985 3.20776 60.2384 1.04709C59.3409 0.864266 58.46 1.4349 58.2716 2.33795C58.2273 2.5374 58.2329 2.73684 58.2606 2.93075C58.2495 3.01385 58.2328 3.09695 58.2328 3.18006V26.3158C56.1442 25.59 53.9392 25.1302 51.6456 24.9806L51.6567 1.66205C51.6567 1.62881 51.6511 1.59557 51.6456 1.56233C51.6456 1.48476 51.6401 1.40166 51.6234 1.3241C51.6234 1.31302 51.6124 1.30194 51.6124 1.28532C51.5902 1.19114 51.5625 1.09695 51.5293 1.00831C51.5182 0.975069 51.496 0.947369 51.4794 0.914128C51.4461 0.847646 51.4184 0.781164 51.3741 0.725763C51.3353 0.664821 51.2855 0.614958 51.2356 0.559556C51.2135 0.531855 51.1968 0.504155 51.1691 0.481994C51.1027 0.415512 51.0251 0.354571 50.9475 0.29917C50.942 0.29917 50.9309 0.288088 50.9254 0.282548C50.8589 0.238226 50.7813 0.199446 50.7038 0.166205C50.6816 0.155124 50.665 0.144045 50.6428 0.132965C50.5708 0.0997239 50.4932 0.0831028 50.4157 0.0609422C50.388 0.055402 50.3603 0.0387819 50.3326 0.0332418C50.2661 0.0221614 50.1996 0.0166208 50.1331 0.0110806C50.0888 0.0110806 50.0445 0 50.0002 0C39.6622 0 29.7453 3.12465 21.3132 9.04155C20.5597 9.56787 20.3824 10.6039 20.9088 11.3573C21.2301 11.8172 21.7453 12.0665 22.2716 12.0665C22.604 12.0665 22.9365 11.9668 23.2245 11.7673C30.6428 6.5651 39.291 3.67313 48.3437 3.35734L48.3326 24.9806C44.3658 25.2465 40.5154 26.4432 37.1137 28.4875C36.327 28.9584 36.0722 29.9834 36.5431 30.7701C37.014 31.5568 38.0389 31.8116 38.8256 31.3407C42.1941 29.3186 46.0611 28.2493 50.0057 28.2493C62.0002 28.2493 71.7619 38.0111 71.7619 50.0055C71.7619 54.1773 70.5763 58.2327 68.3381 61.7285C68.0777 62.133 67.8007 62.5374 67.5126 62.9252C66.8755 63.7839 66.1719 64.6094 65.4129 65.3684C64.7647 66.0166 64.7702 67.0693 65.4184 67.7175C65.7453 68.0388 66.1664 68.1995 66.593 68.1995C67.0196 68.1995 67.4461 68.0388 67.773 67.7119C68.5708 66.9141 69.3076 66.0499 69.9891 65.1524L86.7204 81.2576C86.7204 81.2576 86.7647 81.2909 86.7869 81.3075C86.809 81.3241 86.8201 81.3463 86.8423 81.3629C86.87 81.385 86.8977 81.3961 86.9198 81.4183C86.9531 81.446 86.9919 81.4681 87.0306 81.4903C87.0805 81.5235 87.1359 81.5457 87.1913 81.5734C87.2301 81.59 87.2633 81.6067 87.3021 81.6233C87.363 81.6454 87.4295 81.662 87.4905 81.6787C87.5237 81.6842 87.5514 81.6953 87.5846 81.7008C87.6788 81.7175 87.7785 81.7285 87.8783 81.7285C87.9946 81.7285 88.111 81.7119 88.2218 81.6898C88.2606 81.6842 88.2938 81.6676 88.3326 81.6565C88.4101 81.6344 88.4822 81.6122 88.5542 81.5789C88.5985 81.5623 88.6373 81.5346 88.6816 81.5125C88.7425 81.4792 88.8035 81.446 88.8589 81.4017C88.9032 81.3684 88.942 81.3352 88.9808 81.2964C89.014 81.2687 89.0472 81.2465 89.075 81.2133C89.0971 81.1911 89.1082 81.169 89.1304 81.1468C89.147 81.1302 89.1636 81.1136 89.1802 81.097C95.1304 73.6067 98.7924 64.6316 99.7564 55.1357C99.7564 55.097 99.7564 55.0637 99.7564 55.0249C99.7564 55.0028 99.7619 54.9862 99.7619 54.9695C99.7619 54.9529 99.7619 54.9307 99.7564 54.9141L99.7398 54.9031ZM74.3049 56.6205H96.2051C95.1303 64.1994 92.2051 71.374 87.6678 77.5623L71.8395 62.3213C72.8589 60.5152 73.6511 58.5928 74.1885 56.6039C74.2273 56.6039 74.2661 56.615 74.3049 56.615V56.6205ZM61.5625 27.7618V4.77562C70.4212 7.02493 78.3381 11.7839 84.5542 18.6316C90.8921 25.6066 94.8977 34.1385 96.2051 43.3961L74.183 43.385C72.3215 36.5983 67.6788 30.9585 61.5625 27.7618Z" fill="#0EB4DA"/>
<path d="M51.2353 37.4738C48.9195 37.4738 46.9195 38.1718 45.4624 39.4848C44.781 40.0998 44.7256 41.1524 45.3406 41.8339C45.9555 42.5153 47.0082 42.5707 47.6896 41.9558C48.5262 41.2023 49.7505 40.7979 51.2353 40.7979C52.6924 40.7979 55.13 41.363 55.13 45.1358C55.13 46.0555 55.8724 46.7979 56.7921 46.7979C57.7118 46.7979 58.4541 46.0555 58.4541 45.1358C58.4541 40.4821 55.6231 37.4738 51.2353 37.4738Z" fill="#0EB4DA"/>
<path d="M26.0334 9.93905C26.8201 9.46814 27.075 8.44875 26.6041 7.65651C26.1332 6.8698 25.1138 6.61495 24.3215 7.08587C21.0418 9.05263 17.9836 11.3961 15.2357 14.0609C13.352 15.8837 11.6013 17.867 10.0334 19.9501C9.30214 20.9197 8.59854 21.9335 7.93372 22.9584C7.4351 23.7285 7.65671 24.759 8.43234 25.2576C8.70934 25.4349 9.02513 25.5235 9.32984 25.5235C9.87832 25.5235 10.4102 25.2521 10.726 24.759C11.3465 23.8006 12.0002 22.8532 12.6872 21.9501C14.1553 20.0055 15.7897 18.1496 17.5459 16.4488C20.1165 13.9612 22.9697 11.7728 26.0334 9.93351V9.93905Z" fill="#0A2555"/>
<path d="M81.7398 86.277L65.3187 69.856C66.1719 69.1967 66.9919 68.4709 67.762 67.7064C68.4102 67.0582 68.4102 66.0056 67.762 65.3574C67.1138 64.7092 66.0611 64.7092 65.4129 65.3574C64.6982 66.072 63.9337 66.7424 63.1304 67.3463C62.7204 67.6565 62.2883 67.9612 61.8506 68.2438C61.4296 68.5153 61.1525 68.964 61.1027 69.4626C61.0528 69.9612 61.2246 70.4599 61.5791 70.8144L78.0611 87.2964C72.9808 91.0693 62.1498 97.4128 47.485 96.6094C31.4074 95.7396 20.8257 86.82 17.0251 83.0305C16.3769 82.3823 15.3243 82.3823 14.6761 83.0305C14.0279 83.6787 14.0279 84.7313 14.6761 85.3795C18.7481 89.4405 30.0833 98.9917 47.3021 99.928C48.2163 99.9779 49.1082 100 49.9946 100C66.0057 100 77.3465 92.2272 81.6179 88.7369C81.9836 88.4377 82.2052 88 82.2273 87.5346C82.2495 87.0693 82.0777 86.6094 81.7398 86.277Z" fill="#0A2555"/>
<path d="M29.7176 38.1719C30.0057 38.3658 30.3325 38.46 30.6539 38.46C31.1857 38.46 31.7065 38.2051 32.0278 37.7342C33.7951 35.1525 36.1386 32.9365 38.8201 31.3298C39.6068 30.8589 39.8616 29.834 39.3907 29.0473C38.9198 28.2605 37.9004 28.0057 37.1082 28.4766C34.0223 30.327 31.3187 32.881 29.2854 35.8561C28.7647 36.6151 28.9641 37.6511 29.7176 38.1664V38.1719Z" fill="#0A2555"/>
<path d="M41.4956 60.9751C41.7948 61.1967 42.1438 61.3019 42.4873 61.3019C42.997 61.3019 43.4956 61.0692 43.8225 60.6316L44.0774 60.2881C45.3128 58.615 46.4818 56.8532 47.5677 55.0415C48.1217 54.0776 48.7366 52.5374 48.5206 50.6537C48.4486 50.0443 48.2934 49.446 48.0607 48.8698C48.022 48.7701 47.9721 48.6759 47.9112 48.5872C47.1023 47.3518 46.2269 45.4903 46.6702 43.6343C46.7089 43.4737 46.7533 43.3186 46.8087 43.1634C47.058 42.5983 47.5732 41.8282 48.6369 41.3186C49.4624 40.9197 49.8114 39.928 49.4125 39.1025C49.0136 38.277 48.022 37.928 47.1965 38.3269C45.6009 39.0969 44.4042 40.3324 43.7394 41.9058C43.7283 41.928 43.7228 41.9501 43.7117 41.9778C43.6009 42.2715 43.5123 42.5706 43.4402 42.8753C42.9638 44.8753 43.3073 47.036 44.4264 49.1911H43.2796C42.3599 49.1911 41.6175 49.9335 41.6175 50.8532C41.6175 51.7728 42.3599 52.5152 43.2796 52.5152H45.0801C44.9749 52.8476 44.8419 53.1357 44.7145 53.3629C43.6951 55.0637 42.5871 56.7368 41.4125 58.3213L41.1632 58.6537C40.6148 59.3906 40.7699 60.4321 41.5067 60.9806L41.4956 60.9751Z" fill="#0A2555"/>
</svg>
