<svg width="140" height="140" viewBox="0 0 140 140" fill="none" xmlns="http://www.w3.org/2000/svg">
<path d="M75.6168 121.419H70.3192C69.3896 121.419 68.6392 120.669 68.6392 119.739C68.6392 118.81 69.3896 118.059 70.3192 118.059H74.1496L75.3928 108.875C75.488 108.153 76.0424 107.576 76.7592 107.447C82.208 106.467 87.2816 104.356 91.8288 101.158C92.428 100.738 93.2288 100.755 93.8112 101.198L101.164 106.798L104.098 103.863C104.754 103.208 105.818 103.208 106.473 103.863C107.128 104.518 107.128 105.582 106.473 106.238L102.502 110.208C101.909 110.802 100.968 110.869 100.296 110.359L92.736 104.608C88.3904 107.475 83.6304 109.458 78.5512 110.522L77.2688 119.963C77.1568 120.798 76.4456 121.419 75.6056 121.419H75.6168Z" fill="#0F3780"/>
<path d="M32.8494 85.7919C32.1718 85.7919 31.5334 85.3775 31.2814 84.7111C30.503 82.6615 29.887 80.5391 29.4446 78.3887L20.0366 77.1119C19.2022 76.9999 18.5806 76.2887 18.5806 75.4487V63.6607C18.5806 62.8207 19.2022 62.1095 20.0366 61.9975L29.6462 60.6927C30.7494 55.8879 32.6758 51.3799 35.3974 47.2527L29.6462 39.6927C29.1366 39.0263 29.1982 38.0799 29.7974 37.4863L33.7678 33.5159C34.423 32.8607 35.487 32.8607 36.1422 33.5159C36.7974 34.1711 36.7974 35.2351 36.1422 35.8903L33.2078 38.8247L38.8078 46.1775C39.2502 46.7599 39.267 47.5607 38.847 48.1599C35.8006 52.5055 33.7286 57.3327 32.6982 62.5239C32.5582 63.2295 31.987 63.7615 31.2758 63.8623L21.9518 65.1279V73.9815L31.1022 75.2247C31.8246 75.3255 32.407 75.8799 32.5302 76.6023C32.9446 78.9599 33.583 81.2895 34.4286 83.5183C34.759 84.3863 34.3222 85.3551 33.4542 85.6855C33.2582 85.7583 33.0566 85.7975 32.855 85.7975L32.8494 85.7919Z" fill="#0F3780"/>
<path d="M84.0501 83.4568C75.5269 80.8864 66.5725 80.416 60.0933 82.1912L58.1725 82.7176C59.7909 80.388 61.5605 77.728 62.1989 76.4176C63.1173 74.5192 63.6437 72.8056 63.7893 71.2376H72.3405C73.2701 71.2376 74.0205 70.4872 74.0205 69.5576C74.0205 68.628 73.2701 67.8776 72.3405 67.8776H62.1317C61.2021 67.8776 60.4517 68.628 60.4517 69.5576C60.4517 69.5912 60.4573 69.6248 60.4629 69.6528C60.4629 69.7256 60.4517 69.804 60.4629 69.8768C60.5749 71.2488 60.1437 72.9568 59.1805 74.9504C58.3125 76.748 54.2077 82.5944 52.7069 84.5824C52.2757 85.1536 52.2533 85.9432 52.6565 86.5368C52.9757 87.0072 53.4965 87.276 54.0453 87.276C54.1909 87.276 54.3421 87.2536 54.4877 87.2144L60.9837 85.4336C65.5365 84.1848 73.7293 83.8544 83.0757 86.6768C83.9661 86.9456 84.9013 86.4416 85.1701 85.5512C85.4389 84.6608 84.9349 83.7256 84.0445 83.4568H84.0501Z" fill="#0F3780"/>
<path d="M106.859 86.5312C106.652 86.5312 106.439 86.492 106.232 86.408C105.369 86.0608 104.955 85.0808 105.302 84.224C106.288 81.7712 107.021 79.2064 107.481 76.6024C107.609 75.88 108.186 75.3256 108.909 75.2248L118.065 73.9816V65.128L108.741 63.8624C108.029 63.7672 107.458 63.2296 107.318 62.524C106.299 57.3944 104.261 52.6064 101.265 48.3C100.85 47.7008 100.867 46.9056 101.309 46.3232L106.926 38.948L100.665 32.6872L93.2061 38.3656C92.6349 38.8024 91.8453 38.8248 91.2517 38.4216C86.8501 35.4536 81.9781 33.4768 76.7757 32.5472C76.0589 32.4184 75.5045 31.8416 75.4093 31.1192L74.1661 21.9352H65.3125L64.0525 31.2256C63.9573 31.9368 63.4141 32.5136 62.7085 32.648C60.2781 33.1184 57.8813 33.8352 55.5853 34.776C54.7285 35.1288 53.7429 34.72 53.3957 33.8576C53.0429 33.0008 53.4517 32.0152 54.3141 31.668C56.4421 30.7944 58.6429 30.1 60.8885 29.596L62.1877 20.0256C62.2997 19.1912 63.0109 18.5696 63.8509 18.5696H75.6389C76.4789 18.5696 77.1901 19.1912 77.3021 20.0256L78.5845 29.4672C83.4061 30.4808 87.9533 32.3232 92.1309 34.9664L99.8141 29.1144C100.486 28.6048 101.427 28.672 102.021 29.2656L110.353 37.604C110.947 38.1976 111.009 39.1384 110.505 39.8104L104.731 47.3984C107.402 51.4864 109.295 55.944 110.387 60.6872L119.997 61.992C120.831 62.104 121.453 62.8152 121.453 63.6552V75.4432C121.453 76.2832 120.831 76.9944 119.997 77.1064L110.589 78.3832C110.09 80.8024 109.373 83.1824 108.449 85.4728C108.186 86.128 107.553 86.5256 106.893 86.5256L106.859 86.5312Z" fill="#0EB4DA"/>
<path d="M80.1356 60.8159C79.206 60.8159 78.4556 60.0655 78.4556 59.1359C78.4556 50.7751 72.542 49.8679 69.9996 49.8679C67.9052 49.8679 66.0628 50.2599 64.5228 51.0383C62.9716 51.8223 61.7396 53.0039 60.9612 54.4543C60.5244 55.2719 59.5052 55.5799 58.6876 55.1431C57.87 54.7063 57.562 53.6871 57.9988 52.8695C59.102 50.8031 60.838 49.1343 63.0108 48.0367C65.0212 47.0231 67.3732 46.5079 69.9996 46.5079C77.1788 46.5079 81.8156 51.4695 81.8156 59.1359C81.8156 60.0655 81.0652 60.8159 80.1356 60.8159Z" fill="#0EB4DA"/>
<path d="M70.3189 118.059H65.2957L64.0357 108.769C63.9405 108.058 63.3973 107.481 62.6917 107.346C57.5005 106.338 52.6565 104.289 48.3053 101.259C47.7061 100.845 46.9109 100.862 46.3285 101.304L38.9533 106.921L32.6925 100.66L38.3709 93.2008C38.8077 92.6296 38.8301 91.84 38.4269 91.2464C36.8029 88.8328 35.4533 86.2344 34.4229 83.524C34.0925 82.656 33.1237 82.2248 32.2557 82.5496C31.3877 82.88 30.9509 83.8488 31.2813 84.7168C32.2613 87.2928 33.4989 89.7736 34.9773 92.1144L29.1253 99.7976C29.1253 99.7976 29.1029 99.8312 29.0917 99.848C29.0637 99.8872 29.0413 99.9264 29.0133 99.9712C28.9853 100.022 28.9573 100.072 28.9293 100.128C28.9125 100.173 28.8957 100.212 28.8789 100.257C28.8565 100.313 28.8453 100.369 28.8285 100.425C28.8173 100.47 28.8061 100.514 28.8005 100.559C28.7893 100.615 28.7893 100.677 28.7837 100.733C28.7837 100.778 28.7837 100.822 28.7837 100.867C28.7837 100.923 28.7949 100.985 28.8005 101.041C28.8061 101.086 28.8117 101.13 28.8229 101.175C28.8341 101.231 28.8565 101.287 28.8733 101.349C28.8901 101.394 28.9013 101.433 28.9181 101.478C28.9461 101.539 28.9797 101.595 29.0077 101.651C29.0301 101.685 29.0413 101.718 29.0637 101.752C29.1253 101.842 29.1925 101.926 29.2709 102.004L37.6093 110.337C38.2029 110.93 39.1437 110.998 39.8157 110.488L47.4037 104.714C51.5421 107.414 56.0557 109.323 60.8661 110.404L62.1653 119.974C62.2773 120.809 62.9885 121.43 63.8285 121.43H70.3189C71.2485 121.43 71.9989 120.68 71.9989 119.75C71.9989 118.821 71.2485 118.07 70.3189 118.07V118.059Z" fill="#0A2555"/>
<path d="M110.992 99.6744L105.118 91.9575C106.406 89.8967 107.514 87.7239 108.422 85.4783C108.769 84.6159 108.354 83.6359 107.492 83.2943C106.63 82.9471 105.65 83.3615 105.308 84.2239C104.339 86.6263 103.118 88.9391 101.674 91.1007C101.276 91.6999 101.298 92.4783 101.735 93.0495L107.436 100.537L104.11 103.863C103.454 104.518 103.454 105.582 104.11 106.238C104.44 106.568 104.866 106.73 105.297 106.73C105.728 106.73 106.159 106.568 106.484 106.238L110.846 101.875C111.44 101.282 111.502 100.341 110.998 99.6687L110.992 99.6744Z" fill="#0A2555"/>
<path d="M36.131 35.896L39.4574 32.5696L46.9446 38.2704C47.247 38.5 47.6054 38.612 47.9638 38.612C48.2886 38.612 48.6134 38.5168 48.899 38.332C50.999 36.932 53.239 35.7392 55.5686 34.7816C56.4254 34.4288 56.8398 33.4488 56.487 32.592C56.1342 31.7352 55.1542 31.3208 54.2974 31.6736C52.1358 32.5584 50.0358 33.6392 48.0534 34.8824L40.3366 29.008C39.6702 28.4984 38.7238 28.56 38.1302 29.1592L33.7678 33.5216C33.1126 34.1768 33.1126 35.2408 33.7678 35.896C34.423 36.5512 35.487 36.5512 36.1422 35.896H36.131Z" fill="#0A2555"/>
<path d="M59.9364 67.8776H56.778C55.8484 67.8776 55.098 68.6224 55.098 69.5408C55.098 70.4592 55.8484 71.204 56.778 71.204H60.4516C60.3228 72.1784 59.97 73.4048 59.2084 74.9784C58.3404 76.776 54.23 82.628 52.7348 84.616C52.186 85.3384 52.3316 86.3688 53.054 86.9176C53.3508 87.1416 53.698 87.2536 54.0452 87.2536C54.5436 87.2536 55.0364 87.024 55.3556 86.5984C56.582 84.98 61.0956 78.6352 62.1652 76.4176C63.19 74.3064 63.638 72.5928 63.7612 71.2152C63.89 69.7928 63.694 68.7232 63.4476 67.928C63.3244 67.536 63.1956 67.2112 63.0836 66.9424C63.0332 66.8248 62.994 66.7296 62.966 66.64C62.9268 66.5168 62.8708 66.388 62.8036 66.276C60.0204 61.6112 60.0036 58.9792 59.998 58.1056C59.9756 55.6192 61.37 52.1696 65.3572 50.6296C66.2084 50.2992 66.6284 49.3472 66.298 48.5072C65.9732 47.656 65.0212 47.236 64.1756 47.5664C59.6116 49.3304 56.6828 53.4744 56.7108 58.1336C56.7276 61.0456 57.7748 64.2152 59.8916 67.8104C59.8972 67.8384 59.9084 67.8664 59.9196 67.8944L59.9364 67.8776Z" fill="#0A2555"/>
</svg>
