<svg width="91" height="80" viewBox="0 0 91 80" fill="none" xmlns="http://www.w3.org/2000/svg">
<path d="M23.7231 15.404C24.5315 15.5716 25.3249 15.0434 25.4896 14.2206L26.6473 8.50706C27.2861 5.3481 30.0556 3.05253 33.2244 3.05253H57.4617C60.6354 3.05253 63.4 5.3481 64.0387 8.50706L65.1965 14.2206C65.3412 14.9418 65.9649 15.4395 66.6636 15.4395C66.7634 15.4395 66.8632 15.4294 66.968 15.409C67.7764 15.2414 68.3004 14.4339 68.1307 13.6112L66.973 7.89762C66.0498 3.32678 62.0477 0.010376 57.4617 0.010376H33.2244C28.6384 0.010376 24.6413 3.32678 23.7131 7.89762L22.5554 13.6112C22.3907 14.4339 22.9097 15.2414 23.7181 15.409L23.7231 15.404Z" fill="#0F3780"/>
<path d="M53.4947 76.9528H5.10495C3.94224 76.9528 2.99411 75.9878 2.99411 74.8045V43.6974C5.34947 46.5618 8.88751 48.3901 12.8397 48.3901H35.6948V52.4886C35.6948 52.9508 35.9043 53.3926 36.2587 53.6821L44.4076 60.2946C44.6821 60.5181 45.0114 60.6247 45.3408 60.6247C45.7799 60.6247 46.2191 60.4266 46.5135 60.0508C47.0275 59.3906 46.9227 58.4358 46.2739 57.9076L38.6889 51.7522V40.3657H40.2458C41.0742 40.3657 41.7429 39.6852 41.7429 38.8421C41.7429 37.999 41.0742 37.3185 40.2458 37.3185H37.1918C36.3634 37.3185 35.6948 37.999 35.6948 38.8421V45.3378H12.8397C7.41042 45.3378 2.99411 40.8431 2.99411 35.3175V17.5826C2.99411 16.3993 3.94224 15.4343 5.10495 15.4343H14.1222C14.9506 15.4343 15.6193 14.7538 15.6193 13.9107C15.6193 13.0676 14.9506 12.3871 14.1222 12.3871H5.10495C2.29049 12.3871 0 14.7182 0 17.5826V74.8045C0 77.6689 2.29049 80 5.10495 80H53.4947C54.3231 80 54.9918 79.3195 54.9918 78.4764C54.9918 77.6333 54.3231 76.9528 53.4947 76.9528Z" fill="#0F3780"/>
<path d="M86.6099 12.387H67.8818L66.9686 7.88724C66.0454 3.3164 62.0433 0 57.4573 0H33.22C28.634 0 24.6369 3.3164 23.7087 7.88724L22.551 13.6008C22.3863 14.4235 22.9053 15.2311 23.7137 15.3987C24.5221 15.5663 25.3155 15.0381 25.4802 14.2153L26.6379 8.50177C27.2767 5.34281 30.0462 3.04723 33.215 3.04723H57.4523C60.6261 3.04723 63.3906 5.34281 64.0294 8.50177L64.8178 12.387H45.396C44.5677 12.387 43.899 13.0675 43.899 13.9106C43.899 14.7537 44.5677 15.4342 45.396 15.4342H66.6442C66.6442 15.4342 66.6442 15.4342 66.6492 15.4342H85.562C86.7247 15.4342 87.6728 16.3992 87.6728 17.5825V35.3174C87.6728 40.843 83.2565 45.3377 77.8272 45.3377H54.9722V38.842C54.9722 37.9989 54.3035 37.3184 53.4751 37.3184H50.4611C49.6327 37.3184 48.964 37.9989 48.964 38.842C48.964 39.6851 49.6327 40.3656 50.4611 40.3656H51.9781V51.7521L44.393 57.9075C43.7443 58.4306 43.6395 59.3905 44.1535 60.0507C44.4479 60.4265 44.887 60.6246 45.3262 60.6246C45.6555 60.6246 45.9849 60.518 46.2593 60.2945L54.4083 53.682C54.7626 53.3925 54.9722 52.9558 54.9722 52.4885V48.39H77.8272C81.7794 48.39 85.3175 46.5617 87.6728 43.6973V74.8044C87.6728 75.9877 86.7247 76.9527 85.562 76.9527H77.9071C77.0787 76.9527 76.41 77.6332 76.41 78.4763C76.41 79.3194 77.0787 79.9999 77.9071 79.9999H85.562C88.3764 79.9999 90.6669 77.6688 90.6669 74.8044V16.5363C90.6669 14.2509 88.8405 12.387 86.59 12.387H86.6099Z" fill="#0EB4DA"/>
<path d="M77.9265 79.9997H53.4946C52.6662 79.9997 51.9976 79.3192 51.9976 78.4761C51.9976 77.6331 52.6662 76.9525 53.4946 76.9525H77.9265C78.7549 76.9525 79.4236 77.6331 79.4236 78.4761C79.4236 79.3192 78.7549 79.9997 77.9265 79.9997Z" fill="#0A2555"/>
<path d="M49.4181 15.4343H14.1225C13.2942 15.4343 12.6255 14.7538 12.6255 13.9107C12.6255 13.0676 13.2942 12.3871 14.1225 12.3871H49.4181C50.2464 12.3871 50.9151 13.0676 50.9151 13.9107C50.9151 14.7538 50.2464 15.4343 49.4181 15.4343Z" fill="#0A2555"/>
<path d="M50.4809 40.3656H40.2461C39.4177 40.3656 38.749 39.685 38.749 38.842C38.749 37.9989 39.4177 37.3184 40.2461 37.3184H50.4809C51.3093 37.3184 51.978 37.9989 51.978 38.842C51.978 39.685 51.3093 40.3656 50.4809 40.3656Z" fill="#0A2555"/>
<path d="M46.5133 60.0459C46.4435 60.1373 46.3636 60.2185 46.2788 60.2896C46.2239 60.3303 46.169 60.3709 46.1141 60.4065C46.0792 60.4268 46.0443 60.4471 46.0093 60.4623C45.7997 60.569 45.5752 60.6198 45.3456 60.6198C45.1161 60.6198 44.8865 60.569 44.6819 60.4623C44.647 60.4471 44.6121 60.4268 44.5772 60.4065C44.5173 60.3709 44.4624 60.3303 44.4125 60.2896C44.3227 60.2185 44.2428 60.1373 44.173 60.0459C43.659 59.3907 43.7638 58.4308 44.4125 57.9077L45.3456 57.151L46.2788 57.9077C46.9225 58.4308 47.0323 59.3907 46.5133 60.0459Z" fill="#0A2555"/>
<path d="M46.5133 60.0459C46.4435 60.1373 46.3636 60.2185 46.2788 60.2896C46.2239 60.3303 46.169 60.3709 46.1141 60.4065C46.0792 60.4268 46.0443 60.4471 46.0093 60.4623C45.7997 60.569 45.5752 60.6198 45.3456 60.6198C45.1161 60.6198 44.8865 60.569 44.6819 60.4623C44.647 60.4471 44.6121 60.4268 44.5772 60.4065C44.5173 60.3709 44.4624 60.3303 44.4125 60.2896C44.3227 60.2185 44.2428 60.1373 44.173 60.0459C43.659 59.3907 43.7638 58.4308 44.4125 57.9077L45.3456 57.151L46.2788 57.9077C46.9225 58.4308 47.0323 59.3907 46.5133 60.0459Z" fill="#0A2555"/>
</svg>
