<svg width="110" height="110" viewBox="0 0 110 110" fill="none" xmlns="http://www.w3.org/2000/svg">
<path d="M91.6209 90.1617C91.1061 89.6469 90.2701 89.6469 89.7553 90.1617L88.6641 91.2573C86.8953 93.0261 84.0177 93.0261 82.2489 91.2573L66.1361 75.1445L70.5537 70.7269C71.0685 70.2121 71.0685 69.3761 70.5537 68.8613C70.0389 68.3465 69.2029 68.3465 68.6881 68.8613L66.6597 70.8897L59.7517 63.9817C59.2369 63.4669 58.4009 63.4669 57.8861 63.9817C57.3713 64.4965 57.3713 65.3325 57.8861 65.8473L64.7941 72.7553L63.3377 74.2117C62.8229 74.7265 62.8229 75.5625 63.3377 76.0773L80.3833 93.1229C81.7825 94.5221 83.6173 95.2217 85.4565 95.2217C87.2957 95.2217 89.1305 94.5221 90.5297 93.1229L91.6209 92.0273C92.1357 91.5125 92.1357 90.6765 91.6209 90.1617Z" fill="#0F3780"/>
<path d="M54.1375 34.0089L37.2591 50.8653C36.7443 51.3801 36.7443 52.2161 37.2591 52.7309C37.5187 52.9905 37.8531 53.1181 38.1919 53.1181C38.5307 53.1181 38.8651 52.9905 39.1247 52.7309L56.0031 35.8745C56.5179 35.3597 56.5179 34.5237 56.0031 34.0089C55.4883 33.4941 54.6523 33.4941 54.1375 34.0089Z" fill="#0F3780"/>
<path d="M18.6206 35.3507C18.845 34.6555 18.4622 33.9119 17.7714 33.6875C17.0762 33.4631 16.3326 33.8459 16.1082 34.5367C12.839 44.6655 15.4834 55.6347 23.003 63.1543C23.2626 63.4139 23.597 63.5415 23.9358 63.5415C24.2746 63.5415 24.6134 63.4139 24.8686 63.1543C25.3834 62.6395 25.3834 61.8035 24.8686 61.2887C18.0486 54.4687 15.655 44.5291 18.6162 35.3463L18.6206 35.3507Z" fill="#0F3780"/>
<path d="M92.8181 80.6885L75.7725 63.6429C75.2577 63.1281 74.4217 63.1281 73.9069 63.6429L72.4505 65.0993L66.3345 58.9833C69.4629 54.3633 71.1481 48.9205 71.1481 43.2181C71.1481 35.6853 68.2133 28.6057 62.8893 23.2773C55.3125 15.7005 44.2817 13.0825 34.0957 16.4353C33.4049 16.6641 33.0265 17.4121 33.2553 18.1029C33.4841 18.7937 34.2277 19.1721 34.9229 18.9433C44.1541 15.8985 54.1553 18.2745 61.0193 25.1429C65.8461 29.9697 68.5037 36.3893 68.5037 43.2137C68.5037 50.0381 65.8461 56.4577 61.0193 61.2845C60.5045 61.7993 60.5045 62.6353 61.0193 63.1501C61.2789 63.4097 61.6133 63.5373 61.9521 63.5373C62.2909 63.5373 62.6297 63.4097 62.8849 63.1501C63.5405 62.4945 64.1565 61.8169 64.7373 61.1129L70.5805 66.9561L68.6841 68.8525C68.3629 69.1737 68.2397 69.6225 68.3233 70.0361C68.3233 70.0405 68.3233 70.0449 68.3233 70.0493C68.3409 70.1285 68.3629 70.2033 68.3937 70.2781C68.3937 70.2781 68.3981 70.2869 68.3981 70.2913C68.4641 70.4453 68.5565 70.5905 68.6797 70.7181C68.9393 70.9777 69.2737 71.1053 69.6125 71.1053C69.9513 71.1053 70.2901 70.9777 70.5453 70.7181L74.8309 66.4325L90.9437 82.5453C92.7125 84.3141 92.7125 87.1917 90.9437 88.9605L89.7469 90.1573C89.2321 90.6721 89.2321 91.5081 89.7469 92.0229C90.0065 92.2825 90.3409 92.4101 90.6797 92.4101C91.0185 92.4101 91.3573 92.2825 91.6125 92.0229L92.8093 90.8261C95.6077 88.0277 95.6077 83.4781 92.8093 80.6797L92.8181 80.6885Z" fill="#0EB4DA"/>
<path d="M31.7546 43.5173C31.2398 43.0025 30.4038 43.0025 29.889 43.5173C29.3742 44.0321 29.3742 44.8681 29.889 45.3829L37.259 52.7309C37.5186 52.9861 37.853 53.1181 38.1918 53.1181C38.5306 53.1181 38.8694 52.9905 39.1246 52.7309C39.6394 52.2161 39.6394 51.3801 39.1246 50.8653L31.7546 43.5173Z" fill="#0EB4DA"/>
<path d="M50.8679 70.2296C50.3047 70.2296 49.7811 69.8644 49.6051 69.2968C49.3895 68.6016 49.7811 67.8624 50.4807 67.6468C54.4319 66.4324 58.0751 64.2324 61.0187 61.2888C61.5335 60.774 62.3695 60.774 62.8843 61.2888C63.3991 61.8036 63.3991 62.6396 62.8843 63.1544C59.6371 66.4016 55.6155 68.826 51.2551 70.168C51.1275 70.2076 50.9955 70.2252 50.8679 70.2252V70.2296Z" fill="#0A2555"/>
<path d="M17.3665 36.266C17.2301 36.266 17.0937 36.244 16.9617 36.2C16.2665 35.9756 15.8881 35.232 16.1125 34.5368C17.4897 30.26 19.8129 26.4716 23.0073 23.2772C26.1577 20.1268 29.8889 17.8256 34.0953 16.4396C34.7861 16.2108 35.5341 16.5848 35.7629 17.28C35.9917 17.9708 35.6133 18.7188 34.9225 18.9476C31.1121 20.206 27.7329 22.2916 24.8773 25.1472C21.9777 28.0468 19.8745 31.4788 18.6249 35.3508C18.4445 35.9096 17.9253 36.266 17.3709 36.266H17.3665Z" fill="#0A2555"/>
<path d="M91.6121 90.1748C92.0961 90.6588 92.1269 91.4244 91.7045 91.9436C91.6737 91.9832 91.6429 92.0096 91.6121 92.0448C91.5813 92.08 91.5505 92.1064 91.5109 92.1372C90.9917 92.5596 90.2261 92.5244 89.7421 92.0448C89.2273 91.53 89.2273 90.6896 89.7421 90.1748C90.2569 89.66 91.0973 89.66 91.6121 90.1748Z" fill="#0A2555"/>
<path d="M39.1595 52.6956L39.1243 52.7308C38.8691 52.9904 38.5303 53.118 38.1915 53.118C37.8967 53.118 37.6019 53.0212 37.3599 52.8232C37.3247 52.7924 37.2895 52.7616 37.2587 52.7308C36.7439 52.216 36.7439 51.38 37.2587 50.8652L38.1915 49.9324L39.1243 50.8652C39.6259 51.3668 39.6435 52.1808 39.1595 52.6956Z" fill="#0A2555"/>
<path d="M39.1595 52.6956L39.1243 52.7308C38.8691 52.9904 38.5303 53.118 38.1915 53.118C37.8967 53.118 37.6019 53.0212 37.3599 52.8232C37.3247 52.7924 37.2895 52.7616 37.2587 52.7308C36.7439 52.216 36.7439 51.38 37.2587 50.8652L38.1915 49.9324L39.1243 50.8652C39.6259 51.3668 39.6435 52.1808 39.1595 52.6956Z" fill="#0A2555"/>
<path d="M70.5535 68.8568C71.0375 69.3408 71.0683 70.1064 70.6459 70.6256C70.6151 70.6652 70.5843 70.6916 70.5535 70.7268C70.5227 70.762 70.4919 70.7884 70.4523 70.8192C69.9331 71.2416 69.1675 71.2064 68.6835 70.7268C68.1687 70.212 68.1687 69.3716 68.6835 68.8568C69.1983 68.342 70.0387 68.342 70.5535 68.8568Z" fill="#0A2555"/>
<path d="M42.9436 71.4176C35.4108 71.4176 28.3312 68.4828 23.0028 63.1588C22.488 62.644 22.488 61.808 23.0028 61.2932C23.5176 60.7784 24.3536 60.7784 24.8684 61.2932C29.6952 66.12 36.1148 68.7776 42.9392 68.7776C49.7636 68.7776 56.1832 66.12 61.01 61.2932C61.5248 60.7784 62.3608 60.7784 62.8756 61.2932C63.3904 61.808 63.3904 62.644 62.8756 63.1588C57.5516 68.4828 50.4676 71.4176 42.9348 71.4176H42.9436Z" fill="#0A2555"/>
</svg>
