<svg width="130" height="130" viewBox="0 0 130 130" fill="none" xmlns="http://www.w3.org/2000/svg">
<path d="M86.2473 38.7328C89.211 38.7328 91.6137 36.3302 91.6137 33.3664C91.6137 30.4026 89.211 28 86.2473 28C83.2835 28 80.8809 30.4026 80.8809 33.3664C80.8809 36.3302 83.2835 38.7328 86.2473 38.7328Z" fill="#0F3780"/>
<path d="M105.81 55.1492C108.774 55.1492 111.176 52.7466 111.176 49.7828C111.176 46.819 108.774 44.4164 105.81 44.4164C102.846 44.4164 100.443 46.819 100.443 49.7828C100.443 52.7466 102.846 55.1492 105.81 55.1492Z" fill="#0F3780"/>
<path d="M110.245 80.2964C113.209 80.2964 115.612 77.8938 115.612 74.93C115.612 71.9662 113.209 69.5636 110.245 69.5636C107.282 69.5636 104.879 71.9662 104.879 74.93C104.879 77.8938 107.282 80.2964 110.245 80.2964Z" fill="#0F3780"/>
<path d="M97.4743 102.412C100.438 102.412 102.841 100.009 102.841 97.0456C102.841 94.0818 100.438 91.6792 97.4743 91.6792C94.5105 91.6792 92.1079 94.0818 92.1079 97.0456C92.1079 100.009 94.5105 102.412 97.4743 102.412Z" fill="#0F3780"/>
<path d="M32.6977 93.2444C32.6093 93.2444 32.5209 93.2392 32.4325 93.2236C31.5849 93.078 31.0129 92.272 31.1585 91.4244L33.5193 77.66C33.5505 77.478 33.4881 77.2908 33.3581 77.1608L18.6733 62.8452C17.6593 61.8572 17.3057 60.4116 17.7425 59.07C18.1793 57.7284 19.3181 56.7664 20.7169 56.5636L41.0125 53.6152C41.1945 53.5892 41.3557 53.4748 41.4389 53.3032L47.3565 41.312C47.7361 40.5372 48.6721 40.22 49.4469 40.6048C50.2217 40.9844 50.5389 41.9204 50.1541 42.6952L44.2365 54.6864C43.7009 55.7732 42.6609 56.5272 41.4649 56.704L21.1693 59.6524C20.8677 59.694 20.7533 59.9124 20.7117 60.0372C20.6701 60.162 20.6337 60.4012 20.8521 60.6144L35.5369 74.93C36.4053 75.7776 36.8005 76.9944 36.5977 78.1904L34.2369 91.9548C34.1069 92.714 33.4465 93.2496 32.7029 93.2496L32.6977 93.2444Z" fill="#0F3780"/>
<path d="M66.399 56.7092C66.3262 56.7092 66.2482 56.7092 66.1702 56.6936C64.969 56.5168 63.9342 55.7628 63.3986 54.676L57.7566 43.2412C57.377 42.4664 57.6942 41.5304 58.4638 41.1508C59.2386 40.7712 60.1694 41.0884 60.5542 41.858L66.1962 53.2928C66.2794 53.4592 66.4354 53.5736 66.6226 53.6048C67.4754 53.7296 68.063 54.52 67.9434 55.3728C67.829 56.1476 67.1634 56.7092 66.4042 56.7092H66.399Z" fill="#0EB4DA"/>
<path d="M73.9495 102.178C73.3619 102.178 72.7743 102.038 72.2335 101.752L64.2723 97.5656C63.5079 97.1652 63.2167 96.224 63.6171 95.4596C64.0175 94.6952 64.9639 94.404 65.7231 94.8044L73.6843 98.9904C73.9547 99.1308 74.1731 99.0216 74.2771 98.9488C74.3811 98.8708 74.5527 98.6992 74.5007 98.3976L71.0323 78.1852C70.8295 76.9892 71.2247 75.7724 72.0931 74.9248L86.7779 60.6092C86.9963 60.396 86.9599 60.1568 86.9235 60.032C86.8819 59.9072 86.7675 59.6888 86.4659 59.6472L66.1703 56.6988C65.3175 56.574 64.7247 55.7836 64.8495 54.9308C64.9743 54.078 65.7699 53.4852 66.6175 53.61L86.9131 56.5584C88.3119 56.7612 89.4507 57.7232 89.8875 59.0648C90.3243 60.4064 89.9655 61.8572 88.9567 62.84L74.2719 77.1556C74.1367 77.2856 74.0795 77.4728 74.1107 77.6548L77.5791 97.8672C77.8183 99.2608 77.2567 100.639 76.1127 101.471C75.4679 101.939 74.7087 102.178 73.9495 102.178Z" fill="#0EB4DA"/>
<path d="M59.1553 44.1096C58.5781 44.1096 58.0269 43.7924 57.7565 43.2412L54.3245 36.2836C54.1893 36.008 53.9501 35.9664 53.8149 35.9664C53.6797 35.9664 53.4457 36.008 53.3105 36.2836L50.1541 42.6796C49.7745 43.4492 48.8385 43.7716 48.0637 43.3868C47.2889 43.0072 46.9717 42.0712 47.3565 41.2964L50.5129 34.9004C51.1369 33.6316 52.4057 32.8464 53.8149 32.8464C55.2241 32.8464 56.4929 33.6316 57.1221 34.9004L60.5541 41.858C60.9337 42.6328 60.6165 43.5688 59.8469 43.9484C59.6233 44.0576 59.3893 44.1096 59.1553 44.1096Z" fill="#0A2555"/>
<path d="M33.6805 102.178C32.9213 102.178 32.1621 101.939 31.5173 101.471C30.3733 100.639 29.8117 99.2609 30.0509 97.8673L31.1585 91.4193C31.3041 90.5717 32.1101 89.9997 32.9577 90.1453C33.8053 90.2909 34.3773 91.0969 34.2317 91.9445L33.1241 98.3925C33.0721 98.6941 33.2437 98.8709 33.3477 98.9437C33.4517 99.0217 33.6701 99.1257 33.9405 98.9853L52.0937 89.4433C53.1649 88.8765 54.4493 88.8765 55.5257 89.4433L65.7125 94.7993C66.4769 95.1997 66.7681 96.1409 66.3677 96.9053C65.9673 97.6697 65.0261 97.9609 64.2617 97.5605L54.0749 92.2045C53.9085 92.1161 53.7161 92.1161 53.5497 92.2045L35.3965 101.746C34.8505 102.032 34.2629 102.173 33.6805 102.173V102.178Z" fill="#0A2555"/>
</svg>
