<svg width="18" height="24" viewBox="0 0 18 24" fill="none" xmlns="http://www.w3.org/2000/svg">
<path d="M9.00001 0.625C6.63049 0.627795 4.35883 1.57032 2.68333 3.24582C1.00783 4.92132 0.065301 7.19299 0.0625056 9.5625C0.060327 11.4988 0.692768 13.3824 1.86301 14.925C1.86301 14.925 2.10676 15.2459 2.14657 15.2922L9.00001 23.375L15.8567 15.2882C15.8924 15.2451 16.137 14.925 16.137 14.925L16.1378 14.9226C17.3073 13.3805 17.9394 11.4978 17.9375 9.5625C17.9347 7.19299 16.9922 4.92132 15.3167 3.24582C13.6412 1.57032 11.3695 0.627795 9.00001 0.625ZM9.00001 12.8125C8.35722 12.8125 7.72886 12.6219 7.1944 12.2648C6.65994 11.9077 6.24338 11.4001 5.9974 10.8062C5.75141 10.2124 5.68705 9.5589 5.81245 8.92846C5.93785 8.29802 6.24739 7.71892 6.70191 7.2644C7.15643 6.80988 7.73552 6.50035 8.36596 6.37495C8.9964 6.24955 9.64987 6.31391 10.2437 6.55989C10.8376 6.80588 11.3452 7.22244 11.7023 7.7569C12.0594 8.29136 12.25 8.91971 12.25 9.5625C12.2489 10.4241 11.9062 11.2501 11.2969 11.8594C10.6877 12.4687 9.86163 12.8114 9.00001 12.8125Z" fill="#0A2657"/>
</svg>
